# xmcd
#
# Track frame offsets: 
#        150
#        10036
#        20868
#        31654
#        42755
#        54740
#        66453
#        75359
#        89019
#        103051
#        113757
#        130675
#        147361
#        164445
#
# Disc length: 2348 seconds
#
# Revision: 0
# Processed by: cddbd v1.5.2PL0 Copyright (c) Steve Scherf et al.
# Submitted via: ExactAudioCopy v1.0b3
#
DISCID=b7092a0e
DTITLE=Johnny Cash - Johnny Cash Greatest Country Classics
DYEAR=2012
DGENRE=Country
TTITLE0=Wildwood Flower
TTITLE1=Old Shep
TTITLE2=Goodbye Little Darlin' Goodbye
TTITLE3=I Forgot More Than You'll Ever Know
TTITLE4=I'm So Lonesome I Could Cry
TTITLE5=A Wound Time Can't Erase
TTITLE6=Honky-Tonk Girl
TTITLE7=Delia's Gone
TTITLE8=The Long Black Veil
TTITLE9=The Battle of New Orleans
TTITLE10=The Three Bells
TTITLE11=The Gambler
TTITLE12=(Ghost) Riders In The Sky
TTITLE13=I'm Ragged But I'm Right
EXTD=
EXTT0=
EXTT1=
EXTT2=
EXTT3=
EXTT4=
EXTT5=
EXTT6=
EXTT7=
EXTT8=
EXTT9=
EXTT10=
EXTT11=
EXTT12=
EXTT13=
PLAYORDER=
